<svg width="274" height="76" viewBox="0 0 274 76" fill="none" xmlns="http://www.w3.org/2000/svg">
<g clip-path="url(#clip0)">
<path d="M120.745 59.286H83.9078V53.6289C92.2163 40.128 101.662 27.3683 112.14 15.4901H84.5832V9.67875H120.152V15.3358C107.924 29.4579 99.5638 40.2372 91.3777 53.4232H120.745V59.286Z" fill="white"/>
<path d="M144.055 59.7591C133.823 59.7591 126.66 54.4723 126.66 44.4131V37.7789C126.66 28.3264 132.738 22.3505 142.449 22.3505C152.16 22.3505 157.348 27.7916 157.348 37.3983C157.348 41.348 157.348 42.1708 157.266 42.9114H132.861V44.4028C132.861 50.9547 137.752 54.606 144.946 54.606C148.743 54.5497 152.513 53.9471 156.14 52.8164V57.9591C152.23 59.1884 148.152 59.7958 144.055 59.7591ZM132.861 38.0772H151.167V36.4417C151.167 30.4864 148.21 27.4316 142.5 27.4316C136.36 27.4316 132.861 30.7847 132.861 36.9663V38.0772Z" fill="white"/>
<path d="M181.998 59.7591C171.766 59.7591 164.603 54.4723 164.603 44.4131V37.7789C164.603 28.3264 170.681 22.3505 180.392 22.3505C189.949 22.3505 195.29 27.7916 195.29 37.3983C195.29 41.348 195.29 42.1708 195.209 42.9114H170.804V44.4028C170.804 50.9547 175.695 54.606 182.888 54.606C186.686 54.5497 190.456 53.9471 194.083 52.8164V57.9591C190.173 59.1884 186.095 59.7958 181.998 59.7591ZM170.804 38.0772H189.11V36.4417C189.11 30.4864 186.153 27.4316 180.443 27.4316C174.303 27.4316 170.804 30.7847 170.804 36.9663V38.0772Z" fill="white"/>
<path d="M209.749 58.2574V75.9897H203.446V25.1791C208.588 23.4496 213.957 22.4964 219.378 22.3505C228.27 22.3505 234.492 26.5265 234.492 37.3263V44.7011C234.492 54.9866 227.605 59.7488 219.378 59.7488C216.106 59.8331 212.845 59.328 209.749 58.2574ZM228.168 44.1045V37.7686C228.168 30.1779 224.535 27.5653 219.051 27.5653C215.902 27.6011 212.778 28.1285 209.79 29.1287V52.4461C212.586 53.8012 215.65 54.5044 218.754 54.5032C224.341 54.4724 228.127 51.1913 228.127 44.1148L228.168 44.1045Z" fill="white"/>
<path d="M242.135 44.5571V37.5629C242.135 27.8019 247.907 22.3609 258.068 22.3609C268.229 22.3609 274 27.8739 274 37.5629V44.5571C274 54.3181 268.147 59.7592 258.068 59.7592C247.989 59.7592 242.135 54.3181 242.135 44.5571ZM267.553 44.4851V37.6863C267.553 30.9802 264.484 27.4831 258.068 27.4831C251.652 27.4831 248.572 30.9082 248.572 37.6863V44.5365C248.572 51.3147 251.642 54.6678 258.068 54.6678C264.494 54.6678 267.553 51.1913 267.553 44.4851Z" fill="white"/>
<path d="M20.0662 57.3832H35.3334C42.7009 57.3832 43.0488 68.5328 35.6813 68.8311C34.2929 68.8891 32.9022 68.865 31.5166 68.7591C26.6865 68.3644 21.9944 66.9455 17.7495 64.5957C13.5046 62.2459 9.80324 59.0187 6.88929 55.1266C3.97534 51.2346 1.91495 46.766 0.843875 42.0154C-0.227197 37.2648 -0.284641 32.3399 0.675339 27.5654C0.935331 26.2657 1.63492 25.0966 2.65525 24.2566C3.67558 23.4166 4.95374 22.9576 6.27261 22.9575H36.1213L15.4718 47.9719C14.6352 48.977 14.1667 50.2399 14.1444 51.5501C14.122 52.8603 14.5472 54.1386 15.349 55.1718C15.9154 55.8777 16.635 56.4439 17.4526 56.8272C18.2702 57.2105 19.1642 57.4007 20.0662 57.3832Z" fill="#00CEFF"/>
<path d="M68.4872 33.1502C68.5872 35.882 68.3674 38.6162 67.8324 41.2964C67.5706 42.5952 66.8705 43.7632 65.8506 44.6029C64.8306 45.4425 63.5534 45.9023 62.2351 45.9044H32.0283L52.7187 20.8796C53.4141 20.0424 53.8574 19.0231 53.9964 17.9414C54.1354 16.8598 53.9643 15.7607 53.5033 14.7734C53.0422 13.7861 52.3104 12.9516 51.3938 12.3679C50.4772 11.7843 49.4139 11.4757 48.3289 11.4786H33.1743C25.7966 11.4786 25.4589 0.329022 32.8264 0.0307408C34.2114 -0.0323261 35.5989 -0.00827984 36.9809 0.102739C45.3387 0.800896 53.1545 4.54563 58.9571 10.6321C64.7598 16.7186 68.1491 24.7271 68.4872 33.1502Z" fill="#00CEFF"/>
</g>
<defs>
<clipPath id="clip0">
<rect width="274" height="76" fill="white"/>
</clipPath>
</defs>
</svg>
